<svg width="169" height="95" viewBox="0 0 169 95" fill="none" xmlns="http://www.w3.org/2000/svg">
<g clip-path="url(#clip0_48_14)">
<mask id="mask0_48_14" style="mask-type:luminance" maskUnits="userSpaceOnUse" x="0" y="0" width="169" height="95">
<path d="M0 0H169V95H0V0Z" fill="white"/>
</mask>
<g mask="url(#mask0_48_14)">
<path d="M35.9712 53.2544C35.5098 53.7247 34.9502 53.9596 34.2918 53.9596H29.3526V49.2206H34.2918C34.9502 49.2206 35.5098 49.4514 35.9712 49.9116C36.4321 50.3727 36.663 50.9273 36.663 51.5758C36.663 52.2248 36.4321 52.7843 35.9712 53.2544ZM29.3526 41.0405H33.1345C33.7742 41.0405 34.3294 41.2711 34.7997 41.7316C35.27 42.1924 35.5053 42.7519 35.5053 43.4099C35.5053 44.0683 35.2751 44.6277 34.8141 45.0882C34.3527 45.5493 33.793 45.7794 33.1345 45.7794H29.3526V41.0405ZM37.7073 46.9075C38.5162 45.8548 38.9209 44.6891 38.9209 43.4099C38.9209 41.8116 38.3563 40.4483 37.2275 39.3198C36.0983 38.1915 34.7338 37.6273 33.1345 37.6273H25.937V37.9047V41.0405V45.7794V49.2206V53.9596V57.3312V57.3725H34.2918C35.8908 57.3725 37.2598 56.8083 38.3986 55.6804C39.5369 54.5519 40.1063 53.1887 40.1063 51.5902C40.1063 50.65 39.8897 49.7707 39.4572 48.9527C39.0241 48.1347 38.4411 47.4534 37.7073 46.9075Z" fill="white"/>
<path d="M55.9703 52.0696C54.7095 53.3296 53.1853 53.9594 51.3975 53.9594C49.6098 53.9594 48.0853 53.3296 46.825 52.0696C45.5642 50.81 44.9339 49.2866 44.9339 47.5C44.9339 45.7136 45.5642 44.1907 46.825 42.9304C48.0853 41.6706 49.6098 41.0405 51.3975 41.0405C53.1853 41.0405 54.7095 41.6706 55.9703 42.9304C57.2306 44.1907 57.8614 45.7136 57.8614 47.5C57.8614 49.2866 57.2306 50.81 55.9703 52.0696ZM61.277 47.5C61.277 45.7136 60.8344 44.0636 59.9503 42.5495C59.0655 41.0361 57.8658 39.8373 56.3513 38.9531C54.8363 38.0694 53.1853 37.6272 51.3975 37.6272C49.6098 37.6272 47.9585 38.0694 46.444 38.9531C44.929 39.8373 43.7293 41.0361 42.8451 42.5495C41.9604 44.0636 41.5184 45.7136 41.5184 47.5C41.5184 49.2866 41.9604 50.9369 42.8451 52.4504C43.7293 53.9645 44.929 55.1633 46.444 56.0469C47.9585 56.9309 49.6098 57.3728 51.3975 57.3728C53.1853 57.3728 54.8363 56.9309 56.3513 56.0469C57.8658 55.1633 59.0655 53.9645 59.9503 52.4504C60.8344 50.9369 61.277 49.2866 61.277 47.5Z" fill="white"/>
<path d="M80.8905 57.3727V37.6273H77.4749V45.7793H66.9509V37.6273H63.5356V57.3727H66.9509V49.2207H77.4749V57.3727H80.8905Z" fill="white"/>
<path d="M106.906 52.3799L101.543 37.6272H97.9018L105.1 57.3726H108.741L112.495 47.0205V57.3726H115.938V37.6272H112.297L106.906 52.3799Z" fill="white"/>
<path d="M84.2809 41.0406H95.4864L94.2421 37.6272L84.2809 37.6275V41.0406Z" fill="white"/>
<path d="M97.2138 45.7794H84.2808V49.2208H98.4682L97.2138 45.7794Z" fill="white"/>
<path d="M100.196 53.9595H84.2809V57.3726H101.44L100.196 53.9595Z" fill="white"/>
<path d="M118.761 57.3727H122.176V37.6273H118.761V57.3727Z" fill="white"/>
<path d="M135.865 37.6273H132.224L125.027 57.3727H128.668L134.031 42.62L139.422 57.3727H143.063L135.865 37.6273Z" fill="white"/>
</g>
</g>
<defs>
<clipPath id="clip0_48_14">
<rect width="169" height="95" fill="white"/>
</clipPath>
</defs>
</svg>
